# xmcd
#
# Track frame offsets: 
#        150
#        14982
#        33425
#        54620
#
# Disc length: 950 seconds
#
# Revision: 3
# Processed by: cddbd v1.5.2PL0 Copyright (c) Steve Scherf et al.
# Submitted via: ExactAudioCopy v1.0b4
#
DISCID=3303b404
DTITLE=Wyclef Jean - Gone Till November (Maxi-CD)
DYEAR=1998
DGENRE=R&B
TTITLE0=Gone Till November (Radio Edit)
TTITLE1=Gone Till November (The Makin' Runs Remix)
TTITLE2=No Airplay
TTITLE3=Gone Till November (The Makin' Runs Remix Instrumental)
EXTD=
EXTT0=
EXTT1=
EXTT2=
EXTT3=
PLAYORDER=
